<?xml version="1.0" encoding="utf-8"?>
<!-- Generator: Adobe Illustrator 25.0.0, SVG Export Plug-In . SVG Version: 6.00 Build 0)  -->
<svg version="1.1" id="Layer_1" xmlns="http://www.w3.org/2000/svg" xmlns:xlink="http://www.w3.org/1999/xlink" x="0px" y="0px"
	 viewBox="0 0 220 71" style="enable-background:new 0 0 220 71;" xml:space="preserve">
<style type="text/css">
	.st0{fill:#1E64FF;}
	.st1{fill:#495057;}
	.st2{fill:url(#Fill-1_2_);}
</style>
<g>
	<g>
		<path class="st0" d="M108.6,9.38c-1.58,0-2.87,1.28-2.87,2.87v16.77c0,1.58,1.28,2.87,2.87,2.87c1.58,0,2.87-1.28,2.87-2.87V12.25
			C111.46,10.67,110.18,9.38,108.6,9.38z"/>
		<path class="st0" d="M108.6,0.25c-1.75,0-3.17,1.42-3.17,3.17s1.42,3.17,3.17,3.17s3.17-1.42,3.17-3.17S110.35,0.25,108.6,0.25z"
			/>
		<path class="st0" d="M159.93,29.02c0-1.58-1.28-2.87-2.87-2.87h-7.92l10.12-12.06c1.02-1.21,0.86-3.02-0.35-4.04
			c-0.56-0.47-1.26-0.7-1.94-0.67c-0.03,0-12.67,0-12.67,0c-1.58,0-2.87,1.28-2.87,2.87s1.28,2.87,2.87,2.87h6.62L140.8,27.17
			c-1.02,1.21-0.86,3.02,0.35,4.04c0.54,0.45,1.19,0.67,1.85,0.67c0.14,0,14.07,0,14.07,0C158.64,31.88,159.93,30.6,159.93,29.02z"
			/>
		<path class="st0" d="M185.21,14.74c1.57,0,3.04,0.61,4.15,1.72c1.12,1.12,2.94,1.12,4.05,0c1.12-1.12,1.12-2.94,0-4.06
			c-2.19-2.19-5.1-3.4-8.21-3.4c-3.1,0-6.01,1.21-8.21,3.4c-2.19,2.19-3.4,5.11-3.4,8.21s1.21,6.01,3.4,8.21s5.1,3.4,8.21,3.4
			c3.1,0,6.01-1.21,8.21-3.4c1.12-1.12,1.12-2.94,0-4.05c-1.12-1.12-2.94-1.12-4.05,0c-1.11,1.11-2.58,1.72-4.15,1.72
			c-1.57,0-3.05-0.61-4.16-1.72c-1.11-1.11-1.72-2.59-1.72-4.15c0-1.57,0.61-3.05,1.72-4.15C182.17,15.34,183.64,14.74,185.21,14.74
			z"/>
		<path class="st0" d="M208.39,9c-6.4,0-11.61,5.21-11.61,11.61c0,6.4,5.21,11.6,11.61,11.6c6.4,0,11.61-5.21,11.61-11.6
			C220,14.21,214.79,9,208.39,9z M208.39,26.48c-3.24,0-5.87-2.63-5.87-5.87s2.63-5.87,5.87-5.87s5.87,2.63,5.87,5.87
			C214.26,23.84,211.63,26.48,208.39,26.48z"/>
		<path class="st0" d="M166.97,9.38c-1.58,0-2.87,1.28-2.87,2.87v16.77c0,1.58,1.28,2.87,2.87,2.87s2.87-1.28,2.87-2.87V12.25
			C169.84,10.67,168.56,9.38,166.97,9.38z"/>
		<path class="st0" d="M166.97,0.25c-1.75,0-3.17,1.42-3.17,3.17s1.42,3.17,3.17,3.17s3.17-1.42,3.17-3.17S168.72,0.25,166.97,0.25z
			"/>
		<path class="st0" d="M136.44,9.7c-1.41-0.73-3.14-0.19-3.87,1.22l-6.15,11.86l-6.15-11.86c-0.73-1.41-2.47-1.95-3.87-1.22
			c-1.41,0.73-1.96,2.47-1.22,3.87l8,15.44l-3.7,7.15c-0.73,1.41-0.19,3.14,1.22,3.87c0.46,0.24,0.96,0.34,1.45,0.32
			c0.99-0.04,1.93-0.6,2.42-1.54l13.08-25.23C138.4,12.17,137.85,10.43,136.44,9.7z"/>
	</g>
	<g>
		<path class="st1" d="M105.73,51.07c0-0.66,0.57-1.2,1.23-1.2c0.63,0,1.2,0.54,1.2,1.2s-0.57,1.2-1.2,1.2
			C106.3,52.27,105.73,51.73,105.73,51.07z M108.14,56.82v12.69c0,0.69-0.54,1.23-1.17,1.23c-0.66,0-1.2-0.54-1.2-1.23V56.82
			c0-0.66,0.54-1.2,1.2-1.2C107.59,55.62,108.14,56.17,108.14,56.82z"/>
		<path class="st1" d="M112.51,70.72c-0.66,0-1.2-0.57-1.2-1.2V51.33c0-0.63,0.54-1.17,1.2-1.17c0.63,0,1.17,0.54,1.17,1.17v18.18
			C113.68,70.14,113.14,70.72,112.51,70.72z"/>
		<path class="st1" d="M130.75,62.74c0,0.92-0.54,1.34-1.52,1.34l-10.52-0.06c0.26,3.2,2.72,4.72,5.18,4.72
			c1.32,0,2.37-0.37,3.32-1.09c0.43-0.28,0.68-0.43,1-0.43c0.54,0,0.88,0.37,0.88,0.88c0,0.32-0.14,0.63-0.63,1.06
			c-1.14,1-2.83,1.54-4.63,1.54c-3.66,0-7.58-2.4-7.58-7.55c0-5.14,4.06-7.63,7.32-7.63C126.84,55.53,130.75,58.11,130.75,62.74z
			 M118.71,62.25h9.72c-0.26-3.2-2.72-4.63-4.86-4.63C121.46,57.62,118.97,59.05,118.71,62.25z"/>
		<path class="st1" d="M160.63,60.57c0,6.03-4.94,10.2-9.95,10.2c-5,0-9.95-4.18-9.95-10.2s4.94-10.21,9.95-10.21
			C155.68,50.36,160.63,54.53,160.63,60.57z M143.96,60.57c0,4.34,3.23,7.26,6.72,7.26c3.48,0,6.72-2.92,6.72-7.26
			s-3.2-7.29-6.72-7.29C147.19,53.28,143.96,56.22,143.96,60.57z M145.51,46.79c0-0.89,0.74-1.63,1.66-1.63s1.66,0.74,1.66,1.63
			c0,0.88-0.74,1.63-1.66,1.63C146.25,48.42,145.51,47.67,145.51,46.79z M152.54,46.79c0-0.89,0.74-1.63,1.66-1.63
			s1.66,0.74,1.66,1.63c0,0.88-0.74,1.63-1.66,1.63S152.54,47.67,152.54,46.79z"/>
		<path class="st1" d="M177.22,51.67v17.55c0,0.83-0.72,1.52-1.54,1.52c-0.83,0-1.52-0.68-1.52-1.52v-1.54
			c-0.2,1.28-1.97,3.08-4.69,3.08c-3.17,0-6.98-2.46-6.98-7.63c0-5.09,3.83-7.61,6.98-7.61c2.12,0,3.94,1.09,4.69,2.74v-1.14
			c0-0.08,0-0.2,0.03-0.28v-5.18c0-0.83,0.68-1.52,1.48-1.52C176.5,50.16,177.22,50.85,177.22,51.67z M174.3,63.14
			c0-3.58-2.4-5.01-4.34-5.01c-2.08,0-4.43,1.63-4.43,5.01c0,3.4,2.34,5.03,4.43,5.03C171.89,68.17,174.3,66.68,174.3,63.14z"/>
		<path class="st1" d="M194.37,62.65c0,1.17-0.66,1.63-1.88,1.63l-9.58-0.03c0.32,2.66,2.4,3.98,4.69,3.98
			c1.17,0,1.97-0.28,2.86-0.83c0.48-0.26,0.8-0.46,1.2-0.46c0.66,0,1.06,0.46,1.06,1.08c0,0.37-0.14,0.77-0.77,1.28
			c-1.08,0.89-2.66,1.4-4.46,1.4c-3.72,0-7.69-2.37-7.69-7.55c0-5.14,4.14-7.63,7.4-7.63C190.45,55.53,194.37,58.11,194.37,62.65z
			 M182.9,62.08h8.52c-0.26-2.72-2.32-3.92-4.23-3.92C185.31,58.17,183.16,59.37,182.9,62.08z"/>
	</g>
	
		<linearGradient id="Fill-1_2_" gradientUnits="userSpaceOnUse" x1="620.299" y1="-383.5198" x2="643.639" y2="-383.5198" gradientTransform="matrix(3.5224 0 0 3.5224 -2184.9412 1386.41)">
		<stop  offset="0" style="stop-color:#1E64FF;stop-opacity:0"/>
		<stop  offset="0.85" style="stop-color:#1E64FF"/>
	</linearGradient>
	<path id="Fill-1_1_" class="st2" d="M8.82,0.25C3.94,0.25,0,4.2,0,9.07l0,0v52.88c0,4.87,3.95,8.82,8.82,8.82l0,0h50.75
		c3.31,0,6.33-1.8,7.83-4.76l0,0l13.82-26.47c0.64-1.28,0.99-2.61,0.99-4.01l0,0v-0.17c0-1.39-0.35-2.73-0.99-4.01l0,0L67.41,4.99
		c-1.51-2.9-4.52-4.76-7.83-4.76l0,0H8.82V0.25z"/>
</g>
</svg>
