<?xml version="1.0" encoding="utf-8"?>
<!-- Generator: Adobe Illustrator 25.0.1, SVG Export Plug-In . SVG Version: 6.00 Build 0)  -->
<svg version="1.1" id="Layer_1" xmlns="http://www.w3.org/2000/svg" xmlns:xlink="http://www.w3.org/1999/xlink" x="0px" y="0px"
	 viewBox="0 0 220 71" style="enable-background:new 0 0 220 71;" xml:space="preserve">
<style type="text/css">
	.st0{fill:#1E64FF;}
	.st1{fill:url(#Fill-1_2_);}
	.st2{fill:#495057;}
</style>
<g>
	<g>
		<path class="st0" d="M108.6,39.3c-1.6,0-2.8,1.3-2.8,2.8v16.5c0,1.6,1.3,2.8,2.8,2.8c1.6,0,2.8-1.3,2.8-2.8V42.1
			C111.4,40.5,110.2,39.3,108.6,39.3z"/>
		<path class="st0" d="M108.6,30.3c-1.7,0-3.1,1.4-3.1,3.1c0,1.7,1.4,3.1,3.1,3.1c1.7,0,3.1-1.4,3.1-3.1
			C111.7,31.7,110.3,30.3,108.6,30.3z"/>
		<path class="st0" d="M159.1,58.6c0-1.6-1.3-2.8-2.8-2.8h-7.8l9.9-11.9c1-1.2,0.8-3-0.3-4c-0.6-0.5-1.2-0.7-1.9-0.7
			c0,0-12.5,0-12.5,0c-1.6,0-2.8,1.3-2.8,2.8c0,1.6,1.3,2.8,2.8,2.8h6.5l-10,11.9c-1,1.2-0.8,3,0.3,4c0.5,0.4,1.2,0.7,1.8,0.7
			c0.1,0,13.8,0,13.8,0C157.8,61.4,159.1,60.1,159.1,58.6z"/>
		<path class="st0" d="M183.9,44.5c1.5,0,3,0.6,4.1,1.7c1.1,1.1,2.9,1.1,4,0c1.1-1.1,1.1-2.9,0-4c-2.2-2.2-5-3.3-8.1-3.3
			c-3,0-5.9,1.2-8.1,3.3c-2.2,2.2-3.3,5-3.3,8.1c0,3,1.2,5.9,3.3,8.1c2.2,2.2,5,3.3,8.1,3.3c3,0,5.9-1.2,8.1-3.3
			c1.1-1.1,1.1-2.9,0-4c-1.1-1.1-2.9-1.1-4,0c-1.1,1.1-2.5,1.7-4.1,1.7c-1.5,0-3-0.6-4.1-1.7c-1.1-1.1-1.7-2.5-1.7-4.1
			s0.6-3,1.7-4.1C181,45.1,182.4,44.5,183.9,44.5z"/>
		<path class="st0" d="M206.7,38.9c-6.3,0-11.4,5.1-11.4,11.4s5.1,11.4,11.4,11.4c6.3,0,11.4-5.1,11.4-11.4S213,38.9,206.7,38.9z
			 M206.7,56.1c-3.2,0-5.8-2.6-5.8-5.8s2.6-5.8,5.8-5.8c3.2,0,5.8,2.6,5.8,5.8S209.9,56.1,206.7,56.1z"/>
		<path class="st0" d="M166,39.3c-1.6,0-2.8,1.3-2.8,2.8v16.5c0,1.6,1.3,2.8,2.8,2.8c1.6,0,2.8-1.3,2.8-2.8V42.1
			C168.8,40.5,167.6,39.3,166,39.3z"/>
		<path class="st0" d="M166,30.3c-1.7,0-3.1,1.4-3.1,3.1c0,1.7,1.4,3.1,3.1,3.1c1.7,0,3.1-1.4,3.1-3.1
			C169.1,31.7,167.7,30.3,166,30.3z"/>
		<path class="st0" d="M136,39.6c-1.4-0.7-3.1-0.2-3.8,1.2l-6,11.7l-6-11.7c-0.7-1.4-2.4-1.9-3.8-1.2c-1.4,0.7-1.9,2.4-1.2,3.8
			l7.9,15.2l-3.6,7c-0.7,1.4-0.2,3.1,1.2,3.8c0.5,0.2,0.9,0.3,1.4,0.3c1,0,1.9-0.6,2.4-1.5l12.9-24.8C137.9,42,137.4,40.3,136,39.6z
			"/>
	</g>
	
		<linearGradient id="Fill-1_2_" gradientUnits="userSpaceOnUse" x1="-131.0858" y1="453.7847" x2="-108.1354" y2="453.7847" gradientTransform="matrix(3.5224 0 0 -3.5224 463.5789 1634.2393)">
		<stop  offset="0" style="stop-color:#1E64FF;stop-opacity:0"/>
		<stop  offset="0.85" style="stop-color:#1E64FF"/>
	</linearGradient>
	<path id="Fill-1_1_" class="st1" d="M10.5,1.2C5.7,1.2,1.8,5,1.8,9.8l0,0v52c0,4.8,3.9,8.7,8.7,8.7l0,0h49.9c3.3,0,6.2-1.8,7.7-4.7
		l0,0l13.6-26c0.6-1.3,1-2.6,1-3.9l0,0v-0.2c0-1.4-0.3-2.7-1-3.9l0,0L68.1,5.8c-1.5-2.9-4.5-4.7-7.7-4.7l0,0H10.5z"/>
	<g>
		<path class="st2" d="M120,7.4c0,3.7-2.8,6.3-7.2,6.3h-3.8v5.8c0,0.8-0.7,1.5-1.5,1.5c-0.9,0-1.5-0.7-1.5-1.5V2.8
			c0-1,0.7-1.7,1.7-1.7h5.1C117.2,1.2,120,3.9,120,7.4z M117.1,7.4c0-2.5-1.7-3.6-4.3-3.6h-3.7v7.3h3.7
			C115.3,11.1,117.1,10,117.1,7.4z"/>
		<path class="st2" d="M132.2,8.8V7.6c0-0.8,0.7-1.5,1.5-1.5c0.8,0,1.5,0.7,1.5,1.5v11.9c0,0.8-0.7,1.5-1.5,1.5
			c-0.8,0-1.5-0.7-1.5-1.5V18c-0.2,1.3-1.9,3-4.6,3c-3.1,0-6.9-2.4-6.9-7.5c0-5,3.8-7.5,6.9-7.5C129.6,6.1,131.4,7.1,132.2,8.8z
			 M132.3,13.5c0-3.5-2.4-4.9-4.3-4.9c-2,0-4.4,1.6-4.4,4.9c0,3.3,2.3,4.9,4.4,4.9C130,18.5,132.3,17,132.3,13.5z"/>
		<path class="st2" d="M151.2,7.5c0,0.3-0.1,0.5-0.2,0.7l-7.5,17.1c-0.3,0.7-0.8,1-1.4,1c-0.8,0-1.3-0.6-1.3-1.3
			c0-0.3,0.1-0.5,0.2-0.7l1.7-4l-5.4-12.1c-0.1-0.2-0.2-0.4-0.2-0.7c0-0.7,0.6-1.3,1.4-1.3c0.6,0,1.1,0.3,1.4,1l4.2,9.8l4.2-9.8
			c0.3-0.7,0.8-1,1.4-1C150.6,6.1,151.2,6.8,151.2,7.5z"/>
		<path class="st2" d="M181.2,7.5c0,0.2-0.1,0.4-0.2,0.7l-4,11.5c-0.3,0.7-0.8,1.1-1.4,1.1c-0.6,0-1.2-0.4-1.5-1.1l-3.8-9.3
			l-3.8,9.3c-0.3,0.7-0.8,1.1-1.4,1.1c-0.6,0-1.2-0.4-1.4-1.1l-4-11.5c-0.1-0.3-0.2-0.4-0.2-0.7c0-0.8,0.6-1.4,1.4-1.4
			c0.5,0,1.1,0.3,1.3,0.8l3.1,9.5l3.7-9.4c0.2-0.6,0.7-0.9,1.3-0.9c0.6,0,1.1,0.3,1.3,0.9l3.7,9.4l3.1-9.5c0.1-0.5,0.7-0.8,1.3-0.8
			C180.6,6.1,181.2,6.8,181.2,7.5z"/>
		<path class="st2" d="M183.4,2c0-0.8,0.7-1.5,1.5-1.5c0.8,0,1.5,0.7,1.5,1.5c0,0.8-0.7,1.5-1.5,1.5C184.1,3.5,183.4,2.8,183.4,2z
			 M186.4,7.7v11.8c0,0.8-0.7,1.5-1.5,1.5c-0.8,0-1.5-0.7-1.5-1.5V7.7c0-0.8,0.7-1.5,1.5-1.5C185.8,6.1,186.4,6.8,186.4,7.7z"/>
		<path class="st2" d="M196.9,19.3c0,1.2-1.3,1.7-2.9,1.7c-1.7,0-3.3-0.6-3.3-3.8V8.6h-1.1c-0.7,0-1.2-0.5-1.2-1.2
			c0-0.7,0.5-1.2,1.2-1.2h1.1V4c0-0.8,0.7-1.5,1.5-1.5c0.8,0,1.5,0.7,1.5,1.5v2.2h2c0.7,0,1.2,0.5,1.2,1.2c0,0.7-0.5,1.2-1.2,1.2h-2
			v8.6c0,0.8,0.3,1.2,1,1.2c0.4,0,0.8-0.1,1.1-0.1C196.4,18.2,196.9,18.6,196.9,19.3z"/>
		<path class="st2" d="M212.3,12.6v6.9c0,0.8-0.6,1.5-1.5,1.5c-0.8,0-1.5-0.7-1.5-1.5v-6.9c0-2.8-1.6-3.9-3.4-3.9
			c-2.7,0-3.9,2.4-4,3.6v7.2c0,0.8-0.7,1.5-1.5,1.5c-0.8,0-1.5-0.7-1.5-1.5V2.3c0-0.8,0.7-1.5,1.5-1.5c0.8,0,1.5,0.7,1.5,1.5v7.2
			c0.1-1,1.8-3.4,5-3.4C209.6,6.1,212.3,7.8,212.3,12.6z"/>
	</g>
</g>
</svg>
